<svg width="320" height="320" viewBox="0 0 320 320" fill="none" xmlns="http://www.w3.org/2000/svg">
<rect width="320" height="320" fill="white"/>
<path d="M85.8 182H141.2C142.667 182 143.933 182.533 145 183.6C146.067 184.667 146.6 185.933 146.6 187.4V217.6C146.6 219.067 146.067 220.333 145 221.4C143.933 222.467 142.667 223 141.2 223H40.4C38.9333 223 37.6667 222.467 36.6 221.4C35.5333 220.333 35 219.067 35 217.6V88.4C35 86.9333 35.5333 85.6667 36.6 84.6C37.6667 83.5333 38.9333 83 40.4 83H80.4C81.8667 83 83.1333 83.5333 84.2 84.6C85.2667 85.6667 85.8 86.9333 85.8 88.4V182ZM295.688 216.4C296.088 217.067 296.288 217.933 296.288 219C296.288 219.933 295.821 220.867 294.888 221.8C294.088 222.6 293.088 223 291.888 223H246.288C242.421 223 239.688 221.467 238.088 218.4L213.688 174.8V217.6C213.688 219.067 213.154 220.333 212.088 221.4C211.021 222.467 209.754 223 208.288 223H170.088C168.621 223 167.354 222.467 166.288 221.4C165.221 220.333 164.688 219.067 164.688 217.6V88.4C164.688 86.9333 165.221 85.6667 166.288 84.6C167.354 83.5333 168.621 83 170.088 83H208.288C209.754 83 211.021 83.5333 212.088 84.6C213.154 85.6667 213.688 86.9333 213.688 88.4V128L236.288 87.4C237.754 84.4667 240.421 83 244.288 83H288.488C289.688 83 290.688 83.4667 291.488 84.4C292.421 85.2 292.888 86.1333 292.888 87.2C292.888 88.1333 292.688 88.9333 292.288 89.6L256.288 150L295.688 216.4Z" fill="#2B3951"/>
</svg>
