<svg id="Layer_1" data-name="Layer 1" xmlns="http://www.w3.org/2000/svg" xmlns:xlink="http://www.w3.org/1999/xlink"
  viewBox="0 0 323.4 323.4">
  <defs>
    <style>
      .cls-1,
      .cls-4,
      .cls-9 {
        fill: none;
      }

      .cls-2 {
        clip-path: url(#clip-path);
      }

      .cls-3 {
        fill: #e2d6d6;
      }

      .cls-4 {
        stroke: #d3b2b2;
        stroke-width: 15px;
      }

      .cls-25,
      .cls-27,
      .cls-28,
      .cls-4,
      .cls-9 {
        stroke-miterlimit: 12;
      }

      .cls-41,
      .cls-5 {
        fill: #543c32;
      }

      .cls-6 {
        fill: #ce9558;
      }

      .cls-7 {
        fill: #ddab75;
      }

      .cls-8 {
        fill: #bf813e;
      }

      .cls-9 {
        stroke: #a05d14;
        stroke-width: 4.5px;
      }

      .cls-10 {
        fill: url(#linear-gradient);
      }

      .cls-11 {
        fill: #a2094d;
      }

      .cls-12 {
        fill: #930041;
      }

      .cls-13 {
        fill: #b11c5e;
      }

      .cls-14 {
        fill: #740034;
      }

      .cls-15,
      .cls-30,
      .cls-31 {
        fill: #fff;
      }

      .cls-16 {
        fill: #dedbd4;
      }

      .cls-17 {
        fill: #afa9a0;
      }

      .cls-18 {
        fill: #c68b4b;
      }

      .cls-19 {
        fill: url(#linear-gradient-2);
      }

      .cls-20 {
        fill: #92002a;
        stroke: #830026;
        stroke-miterlimit: 17.28;
        stroke-width: 0.75px;
      }

      .cls-21 {
        fill: #64001d;
      }

      .cls-22 {
        fill: #a1103a;
      }

      .cls-23 {
        fill: #b1234c;
      }

      .cls-24 {
        fill: url(#radial-gradient);
      }

      .cls-25,
      .cls-27,
      .cls-28 {
        fill: #4c2f08;
        stroke-width: 1.5px;
      }

      .cls-25 {
        stroke: #1e1100;
      }

      .cls-26 {
        fill: #5b3c13;
      }

      .cls-27 {
        stroke: #3d2300;
      }

      .cls-28 {
        stroke: #2d1a00;
      }

      .cls-29,
      .cls-31 {
        opacity: 0.9;
      }

      .cls-29,
      .cls-30,
      .cls-31,
      .cls-40,
      .cls-41 {
        isolation: isolate;
      }

      .cls-30 {
        opacity: 0.7;
      }

      .cls-32 {
        fill: url(#radial-gradient-2);
      }

      .cls-33 {
        fill: url(#radial-gradient-3);
      }

      .cls-34 {
        fill: #a05d14;
      }

      .cls-35 {
        fill: url(#radial-gradient-4);
      }

      .cls-36 {
        fill: url(#radial-gradient-5);
      }

      .cls-37 {
        fill: url(#radial-gradient-6);
      }

      .cls-38 {
        fill: url(#radial-gradient-7);
      }

      .cls-39 {
        fill: #2a232b;
      }

      .cls-40 {
        fill: #edc294;
        opacity: 0.2;
      }

      .cls-41 {
        opacity: 0.1;
      }

      .cls-42 {
        fill: #452c22;
      }

      .cls-43 {
        fill: #351f15;
      }

      .cls-44 {
        fill: #634e45;
      }

      .cls-45 {
        fill: #26130b;
      }
    </style>
    <clipPath id="clip-path">
      <circle class="cls-1" cx="161.7" cy="161.7" r="161.7" />
    </clipPath>
    <linearGradient id="linear-gradient" x1="-999.51" y1="331.37" x2="-999.51" y2="317.33"
      gradientTransform="translate(3158.24 -735.22) scale(3)" gradientUnits="userSpaceOnUse">
      <stop offset="0" stop-color="#bf813e" stop-opacity="0.8" />
      <stop offset="0.7" stop-color="#a05d14" />
    </linearGradient>
    <linearGradient id="linear-gradient-2" x1="-1015.21" y1="339.22" x2="-1015.21" y2="337.61"
      gradientTransform="translate(4545.69 -1241.46) scale(4.32)" gradientUnits="userSpaceOnUse">
      <stop offset="0.1" stop-color="#c68b4b" />
      <stop offset="1" stop-color="#bf813e" />
    </linearGradient>
    <radialGradient id="radial-gradient" cx="-1981.51" cy="323.77" r="6.1"
      gradientTransform="matrix(-2.74, 0.14, 0.16, 3, -5360.29, -528.09)" gradientUnits="userSpaceOnUse">
      <stop offset="0" stop-color="#fff" />
      <stop offset="0.54" stop-color="#fdfefe" />
      <stop offset="0.74" stop-color="#f6f8f9" />
      <stop offset="0.88" stop-color="#eaeff2" />
      <stop offset="0.99" stop-color="#d9e3e8" />
      <stop offset="1" stop-color="#d8e2e7" />
    </radialGradient>
    <radialGradient id="radial-gradient-2" cx="-957.07" cy="-157.32" r="7.52"
      gradientTransform="matrix(3, 0.06, 0.05, -2.4, 3009.5, -163.63)" gradientUnits="userSpaceOnUse">
      <stop offset="0" stop-color="#bf813e" />
      <stop offset="0.7" stop-color="#bf813e" stop-opacity="0.3" />
      <stop offset="1" stop-color="#ce9558" stop-opacity="0" />
    </radialGradient>
    <radialGradient id="radial-gradient-3" cx="-1039.51" cy="321.15" r="11.87"
      gradientTransform="matrix(3.1, -0.16, 0.16, 3.1, 3292.36, -975.71)" gradientUnits="userSpaceOnUse">
      <stop offset="0.95" stop-opacity="0" />
      <stop offset="1" stop-opacity="0.3" />
    </radialGradient>
    <radialGradient id="radial-gradient-4" cx="-935.7" cy="273.61" r="6.1"
      gradientTransform="matrix(2.74, 0.14, -0.16, 3, 2802.05, -528.09)" xlink:href="#radial-gradient" />
    <radialGradient id="radial-gradient-5" cx="-1916.18" cy="-182.27" r="7.52"
      gradientTransform="matrix(-3, 0.06, -0.05, -2.4, -5567.74, -163.63)" xlink:href="#radial-gradient-2" />
    <radialGradient id="radial-gradient-6" cx="-1966.37" cy="272.57" r="11.87"
      gradientTransform="matrix(-3.1, -0.16, -0.16, 3.1, -5850.6, -975.71)" xlink:href="#radial-gradient-3" />
    <radialGradient id="radial-gradient-7" cx="-999.45" cy="285.43" r="14.47"
      gradientTransform="translate(3158.24 -735.22) scale(3)" gradientUnits="userSpaceOnUse">
      <stop offset="0" stop-color="#ddab75" stop-opacity="0.5" />
      <stop offset="0.9" stop-color="#ce9558" stop-opacity="0" />
    </radialGradient>
  </defs>
  <g id="Layer_1-2" data-name="Layer 1">
    <g class="cls-2">
      <g id="svga-group-backs-single">
        <path id="SvgjsPath3533" class="cls-3" d="M395.8,414.3H-58.4v-606H395.7v606Z" />
        <path id="SvgjsPath3534" class="cls-4"
          d="M-12.9-143.2v509m18.1,0v-509m18.2,509v-509m18.2,509v-509m18.1,509v-509m18.2,509v-509M96,365.8v-509m18.2,509v-509m18.2,509v-509m18.1,509v-509m18.2,509v-509m18.2,509v-509m18.1,509v-509m18.2,509v-509m18.2,509v-509m18.1,509v-509m18.2,509v-509m18.2,509v-509m18.1,509v-509m18.2,509v-509m18.2,509v-509" />
      </g>
      <g id="svga-group-hair-back-move">
        <g id="svga-group-hair-back">
          <path id="SvgjsPath3293" class="cls-5" d="M160.5,173.5h-1.2v-1.2h1.2Z" />
        </g>
      </g>
      <g id="svga-group-humanbody-single">
        <path id="SvgjsPath3147" class="cls-6"
          d="M269.5,293.4c-7.2-12.3-16.3-14.4-23.7-16.8-7.6-2.4-23.3-3.8-31.9-5.5-8.3-1.7-27.9-7-28.2-16.3-.2-9.7,5.2-48.4,5.2-48.4H128.5s5.4,38.6,5.2,48.4c-.2,9.3-19.9,14.6-28.2,16.3-8.6,1.7-24.3,3.1-31.9,5.5-7.4,2.4-16.4,4.6-23.7,16.8-4.4,7.4-7.2,19.5-7.2,32.7h234C276.7,312.9,273.9,300.8,269.5,293.4Z" />
        <path id="SvgjsPath3148" class="cls-7"
          d="M185.7,254.8c3,13.2,21.9,16.5,31.7,18.5,26.4,5.3,40.7,6.2,51,23.6,3.5,5.9,6.6,19.1,7.2,29.1,2.2.4.6-21-6.2-32.6-11.8-19.9-35.1-18.3-55.6-22.4-8.2-1.6-27.8-6.9-28.1-16.2Zm-51.7,0c-.2,9.3-19.9,14.6-28.2,16.3-20.5,4.1-43.8,2.5-55.6,22.4-6.8,11.5-8.4,32.9-6.2,32.6.6-10,3.7-23.2,7.2-29.1,10.3-17.4,24.6-18.3,51-23.6,9.9-2.1,28.8-5.4,31.8-18.6Z" />
        <path id="SvgjsPath3149" class="cls-8"
          d="M101,280.9s34.5.4,40.4,2.3c2.8.9,10.1,6.8,10.1,6.8s-7.9-3.8-10.4-4.5C135.2,283.8,101,280.9,101,280.9Zm58.6,12.7c2.5,0,9.5-4.6,9.5-4.6s-6.7,2.5-8.9,2.6c-1.8.1-7.7-1.5-7.7-1.5S157.6,293.6,159.6,293.6Zm20.8-8.8c8.1-2.2,35.9-3.9,35.9-3.9s-28.7-.6-36.8,2.1c-2.7.9-9.1,6.2-9.1,6.2S177.7,285.5,180.4,284.8Z" />
        <path id="SvgjsPath3150" class="cls-9"
          d="M269.5,293.4c-11.8-19.9-35.1-18.3-55.6-22.4-8.3-1.7-27.9-7-28.2-16.3-.2-9.7,5.2-48.4,5.2-48.4H128.5s5.4,38.6,5.2,48.4c-.2,9.3-19.9,14.6-28.2,16.3-8.6,1.7-24.3,3.1-31.9,5.5-7.4,2.4-16.4,4.6-23.7,16.8-4.4,7.4-7.2,19.5-7.2,32.7h234C276.7,312.9,273.9,300.8,269.5,293.4Z" />
      </g>
      <g id="svga-group-chinshadow-single">
        <path id="SvgjsPath3135" class="cls-10"
          d="M159.9,258.9c6.8,0,16.3-4.4,25.3-10.2.6-8.3,2.1-20.9,3.3-30.3-16.9-2.2-40.8-2.2-57.6.1,1.2,9.3,2.7,21.8,3.3,30C143.3,254.5,153.1,258.9,159.9,258.9Z" />
      </g>
      <g id="svga-group-clothes-single">
        <path id="SvgjsPath3500" class="cls-11"
          d="M214.7,267.1c-1.3,19.2.9,40.9.9,40.9-9.4-4.1-27.3-18.7-32.2-19.9a24,24,0,0,1-8.9,2.8c-7.2,1.2-16.4,3.1-24.9-1.3a11.93,11.93,0,0,0-7.1,2.7c-15.7,11.7-26.4,12.8-34.5,18.4,2-33.1-1.2-32.7-1.9-44-1.4-.5-1.6-.8-2.4-2.1-12.4,3.8-36.4,7.3-48.5,19.2-10.8,10.7-14.3,27.5-12.5,42.8,66-.7,167.5-1.6,233.9-.9C277.6,276.8,251.5,276.6,214.7,267.1Z" />
        <path id="SvgjsPath3501" class="cls-12"
          d="M182.9,290.6c-2.5-.6-4.4-.1-6.3-.1a24.13,24.13,0,0,0,6.8-2.5c4.3,1,21.9,14.4,31.7,19.9C204,305.1,192.5,293.6,182.9,290.6Zm-29.3.6a22.25,22.25,0,0,1-4-1.6,11.93,11.93,0,0,0-7.1,2.7c-12.4,9.3-26.2,14.8-33.6,18.2C145.6,300.4,139.4,291.4,153.6,291.2Z" />
        <path id="SvgjsPath3502" class="cls-13"
          d="M103.7,264.8c-35.1,9.1-65.8,25-60.9,61.8h-.2A61.1,61.1,0,0,1,43,309c1.6-9.5,5.4-18.5,12.1-25.1,12-12,36.1-15.4,48.5-19.2C103.7,264.7,103.7,264.7,103.7,264.8Zm111,2.3v.5c28.9,9.9,57.4,12.9,61.4,58.1h.5C277.6,276.8,255.4,277.2,214.7,267.1Z" />
        <path id="SvgjsPath3503" class="cls-14"
          d="M277.2,326s-33.8.4-56.2.6c-15.2.1-30.4.2-45.6.2-97.9.4-101-.1-133.5-.1a45.08,45.08,0,0,1-.7-6.2c-2-48.7,36.5-48.9,62.4-56.4a.63.63,0,0,1,.8.3,6.08,6.08,0,0,0,1.3,1.4,4.87,4.87,0,0,0,.1,1.2c-1-.4-1.1-.5-2.2-1.7-.1-.1-.2-.2-.4-.1-2.3.8-5,1.2-7.4,2,5.4,8.1,4.9,9.6,12.1,18,0,.1.1,1.6.1,2.2-6.9-7.1-8.5-11.2-13.4-19.9-20.5,6.5-40.2,7.6-49.3,32.7-3,8.3-3.6,18.1-2.6,26.5,71.4-.8,161.7-1.5,233.7-.9.4-17.3-3.7-36.5-18.7-44.9-6-3.4-12-4.7-33.8-10.9-1.8,4.4-6.1,10-9.4,13.5a14.77,14.77,0,0,0-.1-2.1c1.8-2.3,6.9-9,8.1-11.7-2.6-.7-5.2-1.5-7.7-2.2v-1c9.6,2.2,34.8,7.6,43,12C275.1,287.6,279.5,307.6,277.2,326Zm-93.7-37.6a2.35,2.35,0,0,0-.8-.2c-2.8.7-3.8,1.5-8.6,2.4-3.8.7-12.5,2.3-20.6.3h0a6.41,6.41,0,0,0-3.9-.8C159,295.3,176.5,291.5,183.5,288.4Zm13.4,8.5a8.65,8.65,0,0,0-1-.7c-21,10.7-39.3,10.4-60.4,5.7-1.3-.3-2.7-.7-4-1.1-.4.2-.8.4-1.3.6C152,310.2,177,309.1,196.9,296.9Z" />
        <path id="SvgjsPath3504" class="cls-15"
          d="M108,311c2-34-3.1-37.1-1.9-51.1,4.1-2.4,8.1-3.1,10.1-5.5,9.7-11.4,8.6-16.2,14.9-19.2,1.3,5.3,2,17.6,2,17.7,4.8,14.1,8,20.2,11.9,25.8,2.3,3.3,7.1,8.3,8.3,11.8-2.3-1.2-6.4-1.2-10.8,1.9-7.2,5-4.6,6.2-19.7,11.7C117.4,306.1,112.8,308.7,108,311Zm106.4-29.8c0-.3.4-17.9.4-19.3-7.8-2.8-16-24.4-26.7-25.9-3.1,19.6.6,12.6-8.7,36.3-2.3,5.9-3.2,8.1-3.6,17.8a4.08,4.08,0,0,1,.7-.2h0c3.2-.8,4.3-1.4,6.2-1.9a12.58,12.58,0,0,1,3,1.3h0c9,4.8,17.4,13.5,29.9,18.8C215.9,303.4,214.4,291.8,214.4,281.2Z" />
        <path id="SvgjsPath3505" class="cls-16"
          d="M177.8,289.5a9.29,9.29,0,0,0-1.3.4s-.4.1-.7.2c.4-9.7,1.3-11.9,3.6-17.8,9.3-23.7,5.6-16.7,8.7-36.3a11.11,11.11,0,0,1,6.1,3.4c-1.3,10.4-4.2,18.6-8.4,28,4.9-2.8,10.2-6.1,15-8.8C190.9,267.5,181,276.5,177.8,289.5Zm-24.4,1.1c-1.2-3.4-6-8.5-8.3-11.8-3.9-5.7-7.2-11.7-11.9-25.8,0-.2-.8-12.5-2-17.7-4,1.9-3.7,3.2-6.3,7.8,2.1,11.1,6.5,18.1,12.6,27.4-5.2-3.5-12.6-9.4-19.8-13,12.2,9.1,21,20.9,29.2,33A8,8,0,0,1,153.4,290.6Z" />
        <path id="SvgjsPath3506" class="cls-17"
          d="M145.2,278.7c-6-8.7-8.7-16.5-11.9-25.8,0,0-.5-12.7-1.8-17.9-6.5,3-5.5,6.6-15.3,18.1-2.8,3.2-6.5,4.6-10.2,6.8-.9,10.3,2,18.2,2.1,27.5.3,6.9.2,15.4-.3,23.8,4.9-2.2,9.6-4.9,15-6.9,15.1-5.5,12.5-6.7,19.8-11.7,4.7-3.3,8.8-3,11-1.8C152.6,287.3,147.5,282.1,145.2,278.7Zm-16.7,22c-9.6,3.8-7,2-20.1,9.6,3.7-26.1-1.9-38.1-1.9-49.9,3.8-2,7.4-3,10.2-6.2,10.5-12,8.3-15,14.1-18.5.4,3.4.7,6.9.8,10.4.6,12.3-1,3.9,3.8,16.6,7.2,18.8,14,20.7,17.3,27.2C143.5,285.9,136.9,297.9,128.5,300.7Zm86-19.5c0-.5.4-19.3.4-19.4-7.8-2.7-16.4-24.6-27.2-25.9-.9,5.6-2,17.8-2,17.8-7.4,24.7-9.3,20.4-10,36.6l.8-.2c3.1-.8,4.2-1.3,6.2-1.9.3.1.8.2,1.1.3,0,0,1.9.9,1.8.9,9.1,4.8,17.5,13.6,30.1,18.9C216,303.7,214.5,291.9,214.5,281.2ZM207,302.3c-8.5-5.1-14.3-11.2-23.3-14.9-2.4-1-5.6,1.1-7.7,2.6,1.2-10.3.8-8,3-13.9,10.1-27.4,7.3-11.9,9.6-39.7,9.3,3.1,17.7,22.9,25.3,25.4-2.4,28.8.8,39.1,1.2,45.6C212.4,305.9,209.8,303.9,207,302.3Z" />
      </g>
      <g id="svga-group-faceshape-wrap">
        <g id="svga-group-faceshape-single">
          <path id="SvgjsPath3128" class="cls-6"
            d="M231,145h0c0,.1-12.9,53.5-22.8,68.7-7.8,11.9-34,30.8-48.1,30.8s-40.3-18.8-48.2-30.7c-9.9-15.1-23-68.6-23-68.6h0a70.77,70.77,0,0,1-2.4-18.6,73.4,73.4,0,0,1,146.8-.2A70.76,70.76,0,0,1,231,145Z" />
          <path id="SvgjsPath3129" class="cls-18"
            d="M191.19,60.36a73,73,0,0,1,38.6,64.5,71.88,71.88,0,0,1-2.4,18.6h0c0,.1-13.1,53.5-23,68.6-7.2,10.9-29.6,30.3-44.4,30.3s-37.3-19.4-44.4-30.3c-9.9-15.1-23-68.6-23-68.6h0a70.77,70.77,0,0,1-2.4-18.6,73.18,73.18,0,0,1,38.6-64.5,73.13,73.13,0,0,0-42.2,66.3,71.88,71.88,0,0,0,2.4,18.6h0c0,.1,13.1,53.5,23,68.6,5.3,8.1,19.2,19.4,32,25.8-.6-.3-1.3-.6-1.9-.9,6.5,3.5,12.9,5.7,17.7,5.8h.4c4.9,0,11.2-2.3,17.7-5.8-.6.3-1.3.6-1.9.9,12.8-6.4,26.6-17.7,32-25.8,9.9-15.1,23-68.6,23-68.6h0a70.77,70.77,0,0,0,2.4-18.6A73.3,73.3,0,0,0,191.19,60.36Z" />
          <path id="SvgjsPath3130" class="cls-9"
            d="M231,145h0c0,.1-12.9,53.5-22.8,68.7-7.8,11.9-34,30.8-48.1,30.8s-40.3-18.8-48.2-30.7c-9.9-15.1-23-68.6-23-68.6h0a70.77,70.77,0,0,1-2.4-18.6,73.4,73.4,0,0,1,146.8-.2A70.76,70.76,0,0,1,231,145Z" />
        </g>
      </g>
      <g id="svga-group-mouth-single">
        <path id="SvgjsPath3452" class="cls-19"
          d="M159.73,224.05c-6,0-10.56-6.24-10.56-6.24,10.56,4.8,21.6,0,21.6,0S165,224.05,159.73,224.05Z" />
        <path id="SvgjsPath3456" class="cls-15"
          d="M177.49,210.85c0,1-11.28,5-17.76,5.16-6,.12-17.88-3.84-17.88-5.16s9.36-2.28,18.48-2.28S177.49,209.53,177.49,210.85Z" />
        <path id="SvgjsPath3457" class="cls-20"
          d="M153.37,205c1.44-.24,4,1.32,7,1.32,2.28,0,4.92-1.56,6.72-1.32,3.72.48,5.64,2.76,15.24,3.6a57,57,0,0,1-5.88,1.68c-4,.36-10.44-.24-16.32-.24-6.6,0-13,.6-16.92.48a40.42,40.42,0,0,1-5.76-1.68C145.33,208.33,149.17,205.45,153.37,205Zm-16.08,4.32s6.48,5.16,9,6.84c2.88,2,7.32,5.28,13.68,5.16,5.16-.12,9.6-2.64,12.24-4.32,2.88-1.8,9.84-7.92,9.84-7.92a35.54,35.54,0,0,0-5.88,1.68c-4,1.56-10.8,4-16.2,4-6.6,0-13-2.4-17-3.72A46,46,0,0,0,137.29,209.29Z" />
        <path id="SvgjsPath3458" class="cls-21"
          d="M182.53,208.93c-.72,1-3.12,1.08-4.2,1.44l-4.68,1.8a41.59,41.59,0,0,1-12.12,2.88c-7.68.48-15.36-2.64-22.56-4.92-.6-.24-1.44-.24-1.92-.6s0-1.08.48-1c1.56.24,3,1.08,4.56,1.44a17.05,17.05,0,0,0,5.52.12c2.28-.12,4.56-.24,7-.24,4.2-.12,8.4-.12,12.72.12,3.84.12,7.8.6,11.4-.48a29,29,0,0,0,3-1c.24-.36,1.32-.48.84.36C182.17,209.29,182.53,208.81,182.53,208.93Zm-10.44,1.68c-4.92,0-9.84-.36-14.88-.36-2.76,0-5.4.24-8.16.36-.84,0-2.4-.24-3,.24s1.68,1.2,1.92,1.2A34.94,34.94,0,0,0,162.85,214a49.85,49.85,0,0,0,7.32-1.68,8.39,8.39,0,0,0,2.88-1.08c.84-.48-.6-.6-1-.6Z" />
        <path id="SvgjsPath3459" class="cls-22"
          d="M159.73,219.85c-6,0-10.8-3.48-15.36-7,11.16,3.72,20.64,3.72,31.56-.48C171.37,216.13,166,219.73,159.73,219.85Zm-9.12-11.16c8-.36,16.08.36,24.12.12-2.64-.6-5.28-2-7.92-2.4-2.16-.24-4.32,1.32-6.48,1.32-2.4,0-4.56-1.32-6.84-1.32-2.88.36-5.64,1.8-8.52,2.52,1.92,0,3.84-.12,5.64-.24C153.37,208.57,148.57,208.81,150.61,208.69Z" />
        <path id="SvgjsPath3460" class="cls-23"
          d="M152.89,216.73a34.88,34.88,0,0,0,7.2.72,31.08,31.08,0,0,0,6.6-.84,15.89,15.89,0,0,1-6.72,1.68A15,15,0,0,1,152.89,216.73Z" />
      </g>
      <g id="svga-group-eyes-left-move">
        <g id="svga-group-eyes-left">
          <g id="svga-group-eyesback-left">
            <path id="SvgjsPath3301" class="cls-24"
              d="M112.8,152.7c.5-1.1,2.6-2.6,7.1-3.7a28.89,28.89,0,0,1,7.9-.2c7.2.5,14.2,5.1,16.3,8.8h0a4.37,4.37,0,0,1,.7,2.1,3.88,3.88,0,0,1-1.6,3.2h0c-2.7,2.2-10.3,2.7-14.9,2.7-9.1-.1-11.7-3.6-11.7-3.6a42,42,0,0,1-3.3-4.9h0a8.13,8.13,0,0,1-.9-3.8A.72.72,0,0,0,112.8,152.7Z" />
          </g>
          <g id="svga-group-eyesiriswrapper-left">
            <g id="svga-group-eyesiriscontrol-left">
              <g id="svga-group-eyesiris-left">
                <path id="SvgjsPath3395" class="cls-25"
                  d="M139.05,157.55a10.3,10.3,0,1,1-10.3-10.3A10.29,10.29,0,0,1,139.05,157.55Z" />
                <path id="SvgjsPath3396" class="cls-26"
                  d="M122.85,162.35c1.5-.1.2-.5.2-.5-.7-.4-2.1-1-2.1-1.6,0-1.8,2.4-2.2-.1-2.9-2.6-2.4,2-2.3,2-2.4-1.7-4.1.5-1.8,1.4-3,3.4-4.4.9.5,2.8,0,.7-.2-1.3-2.6.1-2.3a1.46,1.46,0,0,1,1.1,1c.7-.1,1.7-1.2,1.7-1.2,1.3.4,2.2,2.2,1.8,1.9.6-.1,1.5-.4,2.2-.6,0,0,.1-.4.2-.1,1.6,4.5,5.6,4.2,1,5.5,0,0-.3,0,.7.8,4.6,3.7-3.6,2.6.8,4.3.2-.2-2.6,1.7-2.6,2.2,0,.9-1.8,3.1-3.3,2.2-.9-.5-1,1-1.5.3-1-1.4-3-.1-2.2-1.3,1.1-.9-1.1.3-1.5.3-1.4,0,1.9-4.8,6.7-1.2,1.4,1-1.5-2.4,1.1-2.4.3.1.2-.9.2-1.2-1.3-.3,2.4,0,2.4-2.2.2,0,.9-.6-2.8,0,0,0-.1-1.3-.1-1.5.2-.7,2.1-.5,1.5-1.3l-1.4-2.7c-4.4-.7-1.9-1.1-4.6-.6-.1.6-5.9,3.4-5.7,4.7s3.6,1.6.4,3.7C127.75,169.65,119.35,160.05,122.85,162.35Z" />
                <path id="SvgjsPath3397" class="cls-27"
                  d="M128.85,148.55l.3,7.5,3.1-6.8-2.6,7,5.5-5.1-5.1,5.5,7-2.6-6.8,3.1,7.5.3-7.5.3,6.8,3.1-7-2.6,5.1,5.5-5.5-5.1,2.6,7-3.1-6.8-.3,7.5-.3-7.5-3.1,6.8,2.6-7-5.5,5.1,5.1-5.5-7,2.6,6.8-3.1-7.5-.3,7.5-.3-6.8-3.1,7,2.6-5.1-5.5,5.5,5.1-2.6-7,3.1,6.8Z" />
                <path id="SvgjsPath3398" class="cls-28"
                  d="M130.15,150.85l-.9,5.7,3.4-4.6-3,4.9,4.9-3-4.7,3.4,5.7-.9-5.6,1.3,5.6,1.4-5.7-.9,4.6,3.4-4.9-3,3,4.9-3.4-4.7.9,5.7-1.3-5.6-1.4,5.6.9-5.7-3.4,4.6,3-4.9-4.9,3,4.7-3.4-5.7.9,5.6-1.3-5.6-1.4,5.7.9-4.5-3.4,4.9,3-3-4.9,3.4,4.7-.9-5.7,1.3,5.6Z" />
                <path id="SvgjsPath3399" class="cls-29"
                  d="M132.65,157.55a3.8,3.8,0,1,1-3.8-3.8A3.8,3.8,0,0,1,132.65,157.55Z" />
                <path id="SvgjsPath3400" class="cls-30"
                  d="M124.75,165a2.16,2.16,0,1,1-.4-2.5A1.82,1.82,0,0,1,124.75,165Z" />
                <path id="SvgjsPath3401" class="cls-31"
                  d="M137.05,155.55c-.8.8-2.9.2-4.6-1.5s-2.4-3.7-1.5-4.6,2.9-.2,4.6,1.5S137.85,154.65,137.05,155.55Z" />
              </g>
            </g>
          </g>
          <g id="svga-group-eyesfront-left">
            <path id="SvgjsPath3326" class="cls-6"
              d="M106.8,158.5c0,16.7,9.7,30.2,21.7,30.2s21.7-13.5,21.7-30.2-9.7-30.2-21.7-30.2S106.8,141.8,106.8,158.5Zm6.7-1.4h0a8.88,8.88,0,0,1-.8-3.8,4.33,4.33,0,0,1,.1-.5c.5-1.1,2.6-2.6,7.1-3.7a28.89,28.89,0,0,1,7.9-.2c7.2.5,14.2,5.1,16.3,8.8h0a4.37,4.37,0,0,1,.7,2.1,3.88,3.88,0,0,1-1.6,3.2h0c-2.7,2.2-10.3,2.7-14.9,2.7-9.1-.1-11.7-3.6-11.7-3.6C115.7,160.5,114.4,158.8,113.5,157.1Z" />
            <path id="SvgjsPath3327" class="cls-32"
              d="M108.2,154.9c0,10,10.2,18,22.8,18s22.7-8.2,22.7-18.2-10.2-18-22.8-18S108.2,144.9,108.2,154.9Zm5.4,2.2a8.13,8.13,0,0,1-.9-3.8,4.33,4.33,0,0,1,.1-.5c.5-1.1,2.6-2.6,7.1-3.7a28.89,28.89,0,0,1,7.9-.2c7.2.5,14.2,5.1,16.3,8.8h0a4.37,4.37,0,0,1,.7,2.1,3.88,3.88,0,0,1-1.6,3.2h0c-2.7,2.2-10.3,2.7-14.9,2.7-9.1-.1-11.7-3.6-11.7-3.6-.9-1.6-2.2-3.3-3-5Z" />
            <path id="SvgjsPath3332" class="cls-33"
              d="M116.8,162a42,42,0,0,1-3.3-4.9h0a8.13,8.13,0,0,1-.9-3.8,4.33,4.33,0,0,1,.1-.5c.5-1.1,2.6-2.6,7.1-3.7a28.89,28.89,0,0,1,7.9-.2c7.2.5,14.2,5.1,16.3,8.8h0a4.37,4.37,0,0,1,.7,2.1,3.88,3.88,0,0,1-1.6,3.2h0c-2.7,2.2-10.3,2.7-14.9,2.7C119.4,165.5,116.8,162,116.8,162Z" />
            <path id="SvgjsPath3336" class="cls-34"
              d="M145.7,153.8c-8.2-6.6-13.1-9.1-23.3-9.4a27.7,27.7,0,0,1,17.1,3.9C141.3,149.4,144.5,152.7,145.7,153.8Z" />
            <path id="SvgjsPath3337"
              d="M128.5,165.4c4.6,0,12.1-.4,14.9-2.6-4,3.1-10.4,3.5-14,3.5-2.3,0-7.2-.1-9.3-1.1a8.07,8.07,0,0,1-3.3-3.3S119.4,165.4,128.5,165.4Zm-16.7-17c-3.2.1-4.8,0-4.8,0,1.7,1.2,2.1,1.5,2.8,2.9,1.6,2.8,3.7,5.9,3.7,5.9a7.79,7.79,0,0,1-.9-3.7c-.1-1,1.9-2.9,7.3-4.2a28.89,28.89,0,0,1,7.9-.2c7.2.5,14.2,5,16.3,8.7.3,0,.7,0,.8-.2a1.1,1.1,0,0,0,0-.8c-3-5.3-13.4-11.3-22-10.9C117.1,146.2,114,148.3,111.8,148.4Z" />
          </g>
        </g>
      </g>
      <g id="svga-group-eyes-right-move">
        <g id="svga-group-eyes-right">
          <g id="svga-group-eyesback-right">
            <path id="SvgjsPath3309" class="cls-35"
              d="M206.9,152.7c-.5-1.1-2.6-2.6-7.1-3.7a28.89,28.89,0,0,0-7.9-.2c-7.2.5-14.2,5.1-16.3,8.8h0a4.37,4.37,0,0,0-.7,2.1,3.88,3.88,0,0,0,1.6,3.2h0c2.7,2.2,10.3,2.7,14.9,2.7,9.1-.1,11.7-3.6,11.7-3.6a42,42,0,0,0,3.3-4.9h0a8.13,8.13,0,0,0,.9-3.8C207,153.1,207,152.9,206.9,152.7Z" />
          </g>
          <g id="svga-group-eyesiriswrapper-right">
            <g id="svga-group-eyesiriscontrol-right">
              <g id="svga-group-eyesiris-right">
                <path id="SvgjsPath3402" class="cls-25"
                  d="M201.15,157.55a10.3,10.3,0,1,1-10.3-10.3A10.29,10.29,0,0,1,201.15,157.55Z" />
                <path id="SvgjsPath3403" class="cls-26"
                  d="M185,162.35c1.5-.1.2-.5.2-.5-.7-.4-2.1-1-2.1-1.6,0-1.8,2.4-2.2-.1-2.9-2.6-2.4,2-2.3,2-2.4-1.7-4.1.5-1.8,1.4-3,3.4-4.4.9.5,2.8,0,.7-.2-1.3-2.6.1-2.3a1.46,1.46,0,0,1,1.1,1c.7-.1,1.7-1.2,1.7-1.2,1.3.4,2.2,2.2,1.8,1.9.6-.1,1.5-.4,2.2-.6,0,0,.1-.4.2-.1,1.6,4.5,5.6,4.2,1,5.5,0,0-.3,0,.7.8,4.6,3.7-3.6,2.6.8,4.3.2-.2-2.6,1.6-2.6,2.2,0,.9-1.8,3.1-3.3,2.2-.9-.5-1,1-1.5.3-1-1.4-3-.1-2.2-1.3,1.1-.9-1.1.3-1.5.3-1.4,0,1.9-4.8,6.7-1.2,1.4,1-1.5-2.4,1.1-2.4.3.1.2-.9.2-1.2-1.3-.3,2.4,0,2.4-2.2.2,0,.9-.6-2.8,0,0,0-.1-1.3-.1-1.5.2-.7,2.1-.5,1.5-1.3l-1.4-2.7c-4.4-.7-1.9-1.1-4.6-.6-.1.6-5.9,3.4-5.7,4.7s3.6,1.6.4,3.7C190,169.65,181.45,160.05,185,162.35Z" />
                <path id="SvgjsPath3404" class="cls-27"
                  d="M191,148.55l.3,7.5,3.1-6.8-2.6,7,5.5-5.1-5.1,5.5,7-2.6-6.8,3.1,7.5.3-7.5.3,6.8,3.1-7-2.6,5.1,5.5-5.5-5.1,2.6,7-3.1-6.8-.3,7.5-.3-7.5-3.1,6.8,2.6-7-5.5,5.1,5.1-5.5-7,2.6,6.8-3.1-7.5-.3,7.5-.3-6.8-3.1,7,2.6-5.1-5.5,5.5,5.1-2.6-7,3.1,6.8Z" />
                <path id="SvgjsPath3405" class="cls-28"
                  d="M192.35,150.85l-.9,5.7,3.4-4.6-3,4.9,4.9-3-4.7,3.4,5.7-.9-5.6,1.3,5.6,1.4-5.7-.9,4.6,3.4-4.9-3,3,4.9-3.4-4.7.9,5.7-1.3-5.6-1.4,5.6.9-5.7-3.4,4.6,3-4.9-4.9,3,4.7-3.4-5.7.9,5.6-1.3-5.6-1.4,5.7.9-4.6-3.4,4.9,3-3-4.9,3.4,4.7-.9-5.7,1.3,5.6Z" />
                <path id="SvgjsPath3406" class="cls-29"
                  d="M194.75,157.55a3.8,3.8,0,1,1-3.8-3.8A3.8,3.8,0,0,1,194.75,157.55Z" />
                <path id="SvgjsPath3407" class="cls-30" d="M187,165a2.16,2.16,0,1,1-.4-2.5A2,2,0,0,1,187,165Z" />
                <path id="SvgjsPath3408" class="cls-31"
                  d="M199.15,155.55c-.8.8-2.9.2-4.6-1.5s-2.4-3.7-1.5-4.6,2.9-.2,4.6,1.5S200.05,154.65,199.15,155.55Z" />
              </g>
            </g>
          </g>
          <g id="svga-group-eyesfront-right">
            <path id="SvgjsPath3347" class="cls-6"
              d="M191.2,128.3c-12,0-21.7,13.5-21.7,30.2s9.7,30.2,21.7,30.2,21.7-13.5,21.7-30.2S203.2,128.3,191.2,128.3ZM203,162s-2.7,3.5-11.7,3.6c-4.6,0-12.1-.4-14.9-2.7h0a3.76,3.76,0,0,1-1.6-3.2,5.17,5.17,0,0,1,.7-2.1h0c2.2-3.7,9.1-8.3,16.3-8.8a28.6,28.6,0,0,1,7.9.2c4.6,1.1,6.7,2.6,7.1,3.7a1.09,1.09,0,0,1,.1.5,8.13,8.13,0,0,1-.9,3.8h0A19.55,19.55,0,0,1,203,162Z" />
            <path id="SvgjsPath3348" class="cls-36"
              d="M188.9,136.7c-12.6-.1-22.8,8-22.8,18s10.1,18.1,22.7,18.2,22.8-8,22.8-18S201.4,136.8,188.9,136.7Zm17.3,20.4a26.31,26.31,0,0,1-3.3,4.9s-2.7,3.5-11.7,3.6c-4.6,0-12.1-.4-14.9-2.7h0a3.76,3.76,0,0,1-1.6-3.2,5.17,5.17,0,0,1,.7-2.1h0c2.2-3.7,9.1-8.3,16.3-8.8a28.6,28.6,0,0,1,7.9.2c4.6,1.1,6.7,2.6,7.1,3.7a1.09,1.09,0,0,1,.1.5,5.3,5.3,0,0,1-.6,3.9Z" />
            <path id="SvgjsPath3353" class="cls-37"
              d="M203,162a42,42,0,0,0,3.3-4.9h0a8.13,8.13,0,0,0,.9-3.8,4.33,4.33,0,0,0-.1-.5c-.5-1.1-2.6-2.6-7.1-3.7a28.89,28.89,0,0,0-7.9-.2c-7.2.5-14.2,5.1-16.3,8.8h0a4.37,4.37,0,0,0-.7,2.1,3.88,3.88,0,0,0,1.6,3.2h0c2.7,2.2,10.3,2.7,14.9,2.7C200.3,165.5,203,162,203,162Z" />
            <path id="SvgjsPath3357" class="cls-34"
              d="M174,153.8c8.2-6.6,13.1-9.1,23.3-9.4a27.7,27.7,0,0,0-17.1,3.9C178.5,149.4,175.3,152.7,174,153.8Z" />
            <path id="SvgjsPath3358"
              d="M203,161.9a8.07,8.07,0,0,1-3.3,3.3c-2.1,1.1-7,1.2-9.3,1.1-3.6-.1-10-.5-14-3.5,2.7,2.2,10.3,2.7,14.9,2.6C200.3,165.4,203,161.9,203,161.9Zm-6.3-16c-8.6-.4-19,5.5-22,10.9-.1.2-.2.6,0,.8s.5.1.8.2c2.2-3.6,9.1-8.2,16.3-8.7a28.6,28.6,0,0,1,7.9.2c5.4,1.3,7.3,3.2,7.3,4.2a7.55,7.55,0,0,1-.9,3.7s2.1-3.1,3.7-5.9c.8-1.4,1.1-1.6,2.8-2.9,0,0-1.6.1-4.8,0C205.7,148.3,202.7,146.2,196.7,145.9Z" />
          </g>
        </g>
      </g>
      <g id="svga-group-facehighlight-single">
        <path id="SvgjsPath3143" class="cls-38"
          d="M202.1,119.9a42.2,42.2,0,1,1-42.2-42.2A42.21,42.21,0,0,1,202.1,119.9Z" />
      </g>
      <g id="svga-group-eyebrows-left-move">
        <g id="svga-group-eyebrows-left-rotate">
          <g id="svga-group-eyebrows-left">
            <path id="SvgjsPath3269" class="cls-39"
              d="M129.5,135.6c-5.3-.6-25.6,4.5-25.6,4.5s20.3-8.1,28.7-6.8c6.3,1,17.4,6.1,15.3,8.9C146.2,144.3,141.1,136.9,129.5,135.6Z" />
          </g>
        </g>
      </g>
      <g id="svga-group-eyebrows-right-move">
        <g id="svga-group-eyebrows-right-rotate">
          <g id="svga-group-eyebrows-right">
            <path id="SvgjsPath3270" class="cls-39"
              d="M171.6,141.8c-2.1-2.8,9.2-7.6,16.3-8.2,8.6-.7,27.6,4.9,27.6,4.9s-19.2-3.2-24.6-2.5C179.2,137.4,173.3,144,171.6,141.8Z" />
          </g>
        </g>
      </g>
      <g id="svga-group-nose-single-move">
        <g id="svga-group-nose-single">
          <path id="SvgjsPath3281" class="cls-8"
            d="M150.6,192.5c-.9,2.5,6.1,5.2,8.7,5.3,2.9.2,10.9-3.5,9.5-6-1.4-2.7-6.8-.3-9.1-.3S151.8,189.2,150.6,192.5Z" />
          <path id="SvgjsPath3282" class="cls-34"
            d="M162.5,193.7c-.3-.6,1.4-1.6,2.1-1.8.9-.3,3,.3,2.9,1s-1.9-.2-2.5,0S162.8,194.3,162.5,193.7Zm-8.4-.6c.9,0,2.1.6,2.3.1s-1.9-1.3-2.5-1.2-2.4,1.2-2.1,1.6S153,193.1,154.1,193.1Z" />
          <path id="SvgjsPath3283" class="cls-40"
            d="M159.7,189.2a2.7,2.7,0,0,0,2.4-2.3c.9-6.7-.6-24.4-2.4-24.4-1.6,0-3,18.1-2.6,24.4a2.73,2.73,0,0,0,2.6,2.3" />
        </g>
      </g>
      <g id="svga-group-hair-front">
        <path id="SvgjsPath3295" class="cls-41"
          d="M97,128.3c4.2-32.8,58.9-54,65.4-50.8,3.6-1.7,71.6,49.5,71.8,75.8,0,0-26.5,23.3-26.6,15.1s-16.5-29-23.2-37.5c-6.5-8.2-13.3-18.4-17.7-28.2-5.5,10.7-23.8,27.9-31,33.2-14.7,10.9-22.8,34.5-27.1,47.6-.7,2.3-5.7,13.3-6.5,15.7C96.6,185.8,92.3,161.3,97,128.3Z" />
        <path id="SvgjsPath3296" class="cls-5"
          d="M242.6,95.9C228.4,65.5,186.9,37.4,160.7,52c-53.5-28.7-136.6,81-64,160.1l.1.1a140.83,140.83,0,0,0,24.7,21.1c-8.7-12-16.7-28.2-18.9-43.3,7.2-21.7,11.2-40.7,30.7-57.1,13.3-11.2,29.3-23.1,32.2-37.8,9.7,23.9,36,46.4,41.9,63.5.2,17.6-4.5,33.9-5.9,39.4l.3-.6c3.6-6.5,7.1-13,9.4-19.8,1,20.6-7,36.7-11.9,48.2,0,.1-.1.2-.1.3.1-.1.2-.1.3-.2,12.5-8.2,24.2-23.4,31.5-37.7,0,7.5-.6,17-.8,19.8,15.5-21.7,17-42.1,18.2-45.7a86.7,86.7,0,0,0,5.4,17.4C253.1,159.6,255.3,126.4,242.6,95.9Z" />
        <path id="SvgjsPath3297" class="cls-42"
          d="M101,184.3c0-7.3,6.8-18.4,11.3-23.4-3.3,6.7-11.5,28.9-14.5,44.6-12.2-32.1-15.1-72.9,2.2-103.3-9.1,25-14.5,51.7-5.9,77.5C93.8,167.2,90,145,108,116.1,102.5,136.9,98.8,159.6,101,184.3Zm98.7,41.3c8.9-20.2,14.4-37.1,13-52.8-2.6-30.7-32.6-44.7-47-78.2a29.39,29.39,0,0,0,.5-6.7,395.38,395.38,0,0,0,39,57.2c9.9,13.5,11.6,29.1,11.7,45.1,10.1-26.5,8.4-57.4-2.4-83.2,12.7,26.6,13.9,55.5,9.3,84.4,11.6-25.4,18.5-53.2,11.6-80.9,9.3,18.5,8.1,39.3,5.8,60.1,5.9-18.6,5.1-38.1,5.5-57,5.5,20.8,6.1,42.2,6.8,64a109.64,109.64,0,0,1-4.6-19.1c-1.1,9.6-9.9,35-16.5,44.2.4-5,1.5-14.6.8-18.5,8.5-18.8,11.4-40,5.8-58.2,7.1,26.2-3.7,59.4-22.2,82.3A157,157,0,0,1,199.7,225.6Zm-123-65.5c-8.2-54.6,11-70.9,16.3-84.8-35.5,52.4-26.6,100.9,5.4,137.3-6-15.4-10.6-32.9-11.1-49.2-2.8-28,3.2-51.9,20.3-72.5C83.2,100.2,78.9,135.9,76.7,160.1Zm36.7-21.7c0-.1.1-.1.1-.2,7.6-15.9,44.3-41.2,41.4-60.6C155,96.1,116.8,122.2,113.4,138.4Zm100.6-1c-7.4-31.4-25.8-36-34.1-57.5C185.3,99.8,210.1,120.6,214,137.4Zm14.6-15.7c-.5-1.2-3.4-53.5-50.6-62.8C217.8,70.2,226.4,116.6,228.6,121.7ZM105.1,111.3c2.4-9.9,24-35.9,54.1-44.2C120,74,107.4,102.1,105.1,111.3Z" />
        <path id="SvgjsPath3298" class="cls-43"
          d="M208,160.3a62.43,62.43,0,0,1,3.1,15.1,133.37,133.37,0,0,1-8.6,19.4C205.8,181.2,208.1,171.2,208,160.3Zm-89.1,70.5c-8.2-11.1-15-24.5-17.1-38.1-1.4,4.5-2.6,9-3.7,13.7-.2,1.2-8.8-20.4-11.1-43,.5,16.4,4.5,32.6,10.5,48A153.5,153.5,0,0,0,118.9,230.8Z" />
        <path id="SvgjsPath3299" class="cls-44"
          d="M159.3,78c7.7,33.5-42.1,48.8-57,92.3C109.7,131.9,166.1,109,159.3,78Zm-45.8,41.1c9.4-19.8,24.9-34.3,42.8-46.5C135.8,83.4,122.2,97.8,113.5,119.1Zm-20-29c14.9-17.3,34-34.5,58.4-30.5C125.8,51.9,107.9,71.5,93.5,90.1Zm120,10.5c-9.1-17.3-13.4-29.4-34.8-33.9C194.8,71.5,206.8,85.6,213.5,100.6Zm19.8,1.5c-10.4-24.2-18.2-45.6-48.6-48.6C208.8,58.1,224.2,81,233.3,102.1ZM219,158.4c-7.9-30.8-37.5-52.1-45.5-83.5C180.5,106.4,208.5,127.8,219,158.4Z" />
        <path id="SvgjsPath3300" class="cls-45"
          d="M121.4,233.6c-.4-.3-.9-.6-1.3-.9a136.05,136.05,0,0,1-23.4-20.3l-.1-.1c-22.4-24.4-31.9-54.2-27.4-86.2C73.6,91.8,107.1,47,142.6,47a37.82,37.82,0,0,1,18.2,4.8,29.27,29.27,0,0,1,11.9-3.5c1.2-.1,2.4-.2,3.6-.2,27.6,0,56.1,25.3,66.6,47.7,12.9,31,10.4,64.7,11.2,83.8-2.1.5-5.3-17.6-5.7-16.4-3.1,18.9-9.2,32.6-18.4,45.6.4-6.1.8-13.6.8-19.6-7,13.5-19.4,29.8-32.1,37.6.8-1.6,6.1-14.1,7.9-18.9,3.3-10.4,4.8-19.9,4.5-28.9-1.4,4-8.5,19.6-9.7,19.1,1.6-6.2,6-22.1,5.8-39.3-3.3-8.9-14.7-23.1-20.2-30-8-10-16.3-20.4-21.4-32.7-3,14-19,24.7-30.8,36l-1.3,1.2c-18.7,15.2-23.2,34.4-30.7,57,2,12.9,8.3,27.7,17.8,41.6l.4.5c.2.3.4.6.7,1Zm21.1-185c-33.4,0-61.8,36.8-69.4,69.1-10,46.1,7.9,83.8,44.7,111.9-6.2-8.6-13.6-21.5-16-36-1.5,4.9-2.6,9.1-3.6,13.4-1.1-1.4-13.5-30.9-11.9-62.8,1.8-36.6,22.7-57,23.9-55.8-29.2,32.2-25,82.5-12.5,116.1,10.4-52.8,26.2-64.8,37.4-75.7s26.7-21.3,29.6-35.3a40.13,40.13,0,0,0-.6-17.4c1.2-.3,3.2,10.3,1.7,18.3,5.2,12,13.5,21.8,21.5,31.3,14,16.6,24.2,29.8,25.5,46.9,2,22.3-8,41.5-12.7,52.2,10.9-9.3,23.3-24.2,30.6-39.8,15.4-32.6,8.2-59.2,8.2-59.2,5.3,17.2,3.2,38.4-5.8,58.3.7,3.8-.3,12.7-.7,17.6,5.9-8.6,14.8-33.6,16-43.4.2,0,4.4,17.1,4.6,17.5-1-30.6-2.1-58.3-15.2-85.1-9.2-20.4-38.3-42.1-62.9-42.1-6,0-12.9,2.3-19.3,7.3l-.3-.4a30.83,30.83,0,0,1,4.1-3A40.87,40.87,0,0,0,142.5,48.6Zm61.8,139.7c-.3,1.5-.7,3-1,4.7a129.37,129.37,0,0,0,7.7-17.7,63,63,0,0,0-2.7-13.6C208.1,171.1,206.3,180,204.3,188.3Z" />
      </g>
    </g>
  </g>
</svg>